<mxfile host="app.diagrams.net" agent="Mozilla/5.0 (Windows NT 10.0; Win64; x64) AppleWebKit/537.36 (KHTML, like Gecko) Chrome/139.0.0.0 Safari/537.36" version="28.1.2">
  <diagram name="ER-ITA-Airways" id="ORsb2YVEpEmCs774cfT0">
    <mxGraphModel dx="872" dy="1600" grid="1" gridSize="10" guides="1" tooltips="1" connect="1" arrows="1" fold="1" page="1" pageScale="1" pageWidth="827" pageHeight="1169" math="0" shadow="0">
      <root>
        <mxCell id="0" />
        <mxCell id="1" parent="0" />
        <mxCell id="3AHY8TIb99wPKy08bn-X-1" value="AEROPORTO" style="rounded=0;whiteSpace=wrap;html=1;fillColor=#dae8fc;strokeColor=#6c8ebf;" parent="1" vertex="1">
          <mxGeometry x="80" y="80" width="120" height="60" as="geometry" />
        </mxCell>
        <mxCell id="3AHY8TIb99wPKy08bn-X-2" value="codice_iata" style="ellipse;whiteSpace=wrap;html=1;fillColor=#fff2cc;strokeColor=#d6b656;" parent="1" vertex="1">
          <mxGeometry x="20" y="20" width="80" height="40" as="geometry" />
        </mxCell>
        <mxCell id="3AHY8TIb99wPKy08bn-X-3" parent="1" source="3AHY8TIb99wPKy08bn-X-2" target="3AHY8TIb99wPKy08bn-X-1" edge="1">
          <mxGeometry relative="1" as="geometry" />
        </mxCell>
        <mxCell id="3AHY8TIb99wPKy08bn-X-4" value="città" style="ellipse;whiteSpace=wrap;html=1;" parent="1" vertex="1">
          <mxGeometry x="180" y="20" width="80" height="40" as="geometry" />
        </mxCell>
        <mxCell id="3AHY8TIb99wPKy08bn-X-5" parent="1" source="3AHY8TIb99wPKy08bn-X-4" target="3AHY8TIb99wPKy08bn-X-1" edge="1">
          <mxGeometry relative="1" as="geometry" />
        </mxCell>
        <mxCell id="3AHY8TIb99wPKy08bn-X-6" value="nazione" style="ellipse;whiteSpace=wrap;html=1;" parent="1" vertex="1">
          <mxGeometry x="10" y="160" width="80" height="40" as="geometry" />
        </mxCell>
        <mxCell id="3AHY8TIb99wPKy08bn-X-7" parent="1" source="3AHY8TIb99wPKy08bn-X-6" target="3AHY8TIb99wPKy08bn-X-1" edge="1">
          <mxGeometry relative="1" as="geometry" />
        </mxCell>
        <mxCell id="3AHY8TIb99wPKy08bn-X-8" value="nome_completo" style="ellipse;whiteSpace=wrap;html=1;" parent="1" vertex="1">
          <mxGeometry x="90" y="-30" width="100" height="40" as="geometry" />
        </mxCell>
        <mxCell id="3AHY8TIb99wPKy08bn-X-9" parent="1" source="3AHY8TIb99wPKy08bn-X-8" target="3AHY8TIb99wPKy08bn-X-1" edge="1">
          <mxGeometry relative="1" as="geometry" />
        </mxCell>
        <mxCell id="3AHY8TIb99wPKy08bn-X-10" value="TRATTA" style="rounded=0;whiteSpace=wrap;html=1;fillColor=#dae8fc;strokeColor=#6c8ebf;" parent="1" vertex="1">
          <mxGeometry x="380" y="80" width="120" height="60" as="geometry" />
        </mxCell>
        <mxCell id="3AHY8TIb99wPKy08bn-X-11" value="id_tratta" style="ellipse;whiteSpace=wrap;html=1;fillColor=#fff2cc;strokeColor=#d6b656;" parent="1" vertex="1">
          <mxGeometry x="350" y="20" width="80" height="40" as="geometry" />
        </mxCell>
        <mxCell id="3AHY8TIb99wPKy08bn-X-12" parent="1" source="3AHY8TIb99wPKy08bn-X-11" target="3AHY8TIb99wPKy08bn-X-10" edge="1">
          <mxGeometry relative="1" as="geometry" />
        </mxCell>
        <mxCell id="3AHY8TIb99wPKy08bn-X-13" value="distanza_km" style="ellipse;whiteSpace=wrap;html=1;" parent="1" vertex="1">
          <mxGeometry x="460" y="20" width="80" height="40" as="geometry" />
        </mxCell>
        <mxCell id="3AHY8TIb99wPKy08bn-X-14" parent="1" source="3AHY8TIb99wPKy08bn-X-13" target="3AHY8TIb99wPKy08bn-X-10" edge="1">
          <mxGeometry relative="1" as="geometry" />
        </mxCell>
        <mxCell id="3AHY8TIb99wPKy08bn-X-15" value="PARTE_DA" style="rhombus;whiteSpace=wrap;html=1;fillColor=#d5e8d4;strokeColor=#82b366;" parent="1" vertex="1">
          <mxGeometry x="240" y="70" width="100" height="80" as="geometry" />
        </mxCell>
        <mxCell id="3AHY8TIb99wPKy08bn-X-16" parent="1" source="3AHY8TIb99wPKy08bn-X-1" target="3AHY8TIb99wPKy08bn-X-15" edge="1">
          <mxGeometry relative="1" as="geometry">
            <mxPoint as="offset" />
            <Array as="points" />
            <mxPoint x="200" y="110" as="sourcePoint" />
          </mxGeometry>
        </mxCell>
        <mxCell id="3AHY8TIb99wPKy08bn-X-17" parent="1" source="3AHY8TIb99wPKy08bn-X-15" target="3AHY8TIb99wPKy08bn-X-10" edge="1">
          <mxGeometry relative="1" as="geometry">
            <mxPoint as="offset" />
            <Array as="points" />
            <mxPoint x="340" y="110" as="targetPoint" />
          </mxGeometry>
        </mxCell>
        <mxCell id="3AHY8TIb99wPKy08bn-X-18" value="1" style="text;html=1;strokeColor=none;fillColor=none;align=center;verticalAlign=middle;whiteSpace=wrap;rounded=0;" parent="1" vertex="1">
          <mxGeometry x="210" y="90" width="30" height="20" as="geometry" />
        </mxCell>
        <mxCell id="3AHY8TIb99wPKy08bn-X-19" value="N" style="text;html=1;strokeColor=none;fillColor=none;align=center;verticalAlign=middle;whiteSpace=wrap;rounded=0;" parent="1" vertex="1">
          <mxGeometry x="340" y="90" width="30" height="20" as="geometry" />
        </mxCell>
        <mxCell id="3AHY8TIb99wPKy08bn-X-20" value="AEREO" style="rounded=0;whiteSpace=wrap;html=1;fillColor=#dae8fc;strokeColor=#6c8ebf;" parent="1" vertex="1">
          <mxGeometry x="75" y="340" width="120" height="60" as="geometry" />
        </mxCell>
        <mxCell id="3AHY8TIb99wPKy08bn-X-21" value="id_aereo" style="ellipse;whiteSpace=wrap;html=1;fillColor=#fff2cc;strokeColor=#d6b656;" parent="1" vertex="1">
          <mxGeometry x="35" y="270" width="80" height="40" as="geometry" />
        </mxCell>
        <mxCell id="3AHY8TIb99wPKy08bn-X-22" parent="1" source="3AHY8TIb99wPKy08bn-X-21" target="3AHY8TIb99wPKy08bn-X-20" edge="1">
          <mxGeometry relative="1" as="geometry" />
        </mxCell>
        <mxCell id="3AHY8TIb99wPKy08bn-X-23" value="compagnia" style="ellipse;whiteSpace=wrap;html=1;" parent="1" vertex="1">
          <mxGeometry x="155" y="260" width="80" height="40" as="geometry" />
        </mxCell>
        <mxCell id="3AHY8TIb99wPKy08bn-X-24" parent="1" source="3AHY8TIb99wPKy08bn-X-23" target="3AHY8TIb99wPKy08bn-X-20" edge="1">
          <mxGeometry relative="1" as="geometry" />
        </mxCell>
        <mxCell id="3AHY8TIb99wPKy08bn-X-25" value="modello" style="ellipse;whiteSpace=wrap;html=1;" parent="1" vertex="1">
          <mxGeometry y="420" width="80" height="40" as="geometry" />
        </mxCell>
        <mxCell id="3AHY8TIb99wPKy08bn-X-26" parent="1" source="3AHY8TIb99wPKy08bn-X-25" target="3AHY8TIb99wPKy08bn-X-20" edge="1">
          <mxGeometry relative="1" as="geometry" />
        </mxCell>
        <mxCell id="3AHY8TIb99wPKy08bn-X-27" value="capacità" style="ellipse;whiteSpace=wrap;html=1;" parent="1" vertex="1">
          <mxGeometry x="210" y="410" width="80" height="40" as="geometry" />
        </mxCell>
        <mxCell id="3AHY8TIb99wPKy08bn-X-28" parent="1" source="3AHY8TIb99wPKy08bn-X-27" target="3AHY8TIb99wPKy08bn-X-20" edge="1">
          <mxGeometry relative="1" as="geometry" />
        </mxCell>
        <mxCell id="3AHY8TIb99wPKy08bn-X-29" value="VIAGGIO" style="rounded=0;whiteSpace=wrap;html=1;fillColor=#dae8fc;strokeColor=#6c8ebf;" parent="1" vertex="1">
          <mxGeometry x="200" y="580" width="120" height="60" as="geometry" />
        </mxCell>
        <mxCell id="3AHY8TIb99wPKy08bn-X-30" value="id_viaggio" style="ellipse;whiteSpace=wrap;html=1;fillColor=#fff2cc;strokeColor=#d6b656;" parent="1" vertex="1">
          <mxGeometry x="130" y="670" width="80" height="40" as="geometry" />
        </mxCell>
        <mxCell id="3AHY8TIb99wPKy08bn-X-31" parent="1" source="3AHY8TIb99wPKy08bn-X-30" target="3AHY8TIb99wPKy08bn-X-29" edge="1">
          <mxGeometry relative="1" as="geometry" />
        </mxCell>
        <mxCell id="3AHY8TIb99wPKy08bn-X-32" value="data_partenza" style="ellipse;whiteSpace=wrap;html=1;" parent="1" vertex="1">
          <mxGeometry x="255" y="680" width="100" height="40" as="geometry" />
        </mxCell>
        <mxCell id="3AHY8TIb99wPKy08bn-X-33" parent="1" source="3AHY8TIb99wPKy08bn-X-32" target="3AHY8TIb99wPKy08bn-X-29" edge="1">
          <mxGeometry relative="1" as="geometry" />
        </mxCell>
        <mxCell id="3AHY8TIb99wPKy08bn-X-34" value="PASSEGGERO" style="rounded=0;whiteSpace=wrap;html=1;fillColor=#dae8fc;strokeColor=#6c8ebf;" parent="1" vertex="1">
          <mxGeometry x="879" y="590" width="120" height="60" as="geometry" />
        </mxCell>
        <mxCell id="3AHY8TIb99wPKy08bn-X-35" value="id_passeggero" style="ellipse;whiteSpace=wrap;html=1;fillColor=#fff2cc;strokeColor=#d6b656;" parent="1" vertex="1">
          <mxGeometry x="819" y="530" width="100" height="40" as="geometry" />
        </mxCell>
        <mxCell id="3AHY8TIb99wPKy08bn-X-36" parent="1" source="3AHY8TIb99wPKy08bn-X-35" target="3AHY8TIb99wPKy08bn-X-34" edge="1">
          <mxGeometry relative="1" as="geometry" />
        </mxCell>
        <mxCell id="3AHY8TIb99wPKy08bn-X-37" value="nome" style="ellipse;whiteSpace=wrap;html=1;" parent="1" vertex="1">
          <mxGeometry x="969" y="530" width="80" height="40" as="geometry" />
        </mxCell>
        <mxCell id="3AHY8TIb99wPKy08bn-X-38" parent="1" target="3AHY8TIb99wPKy08bn-X-34" edge="1">
          <mxGeometry relative="1" as="geometry">
            <mxPoint x="983.6153846155066" y="568.4615384613917" as="sourcePoint" />
          </mxGeometry>
        </mxCell>
        <mxCell id="3AHY8TIb99wPKy08bn-X-39" value="cognome" style="ellipse;whiteSpace=wrap;html=1;" parent="1" vertex="1">
          <mxGeometry x="809" y="660" width="80" height="40" as="geometry" />
        </mxCell>
        <mxCell id="3AHY8TIb99wPKy08bn-X-40" parent="1" source="3AHY8TIb99wPKy08bn-X-39" target="3AHY8TIb99wPKy08bn-X-34" edge="1">
          <mxGeometry relative="1" as="geometry" />
        </mxCell>
        <mxCell id="3AHY8TIb99wPKy08bn-X-41" value="email" style="ellipse;whiteSpace=wrap;html=1;" parent="1" vertex="1">
          <mxGeometry x="979" y="660" width="80" height="40" as="geometry" />
        </mxCell>
        <mxCell id="3AHY8TIb99wPKy08bn-X-42" parent="1" target="3AHY8TIb99wPKy08bn-X-34" edge="1">
          <mxGeometry relative="1" as="geometry">
            <mxPoint x="983.6153846155066" y="671.5384615386088" as="sourcePoint" />
          </mxGeometry>
        </mxCell>
        <mxCell id="3AHY8TIb99wPKy08bn-X-43" value="BIGLIETTO" style="rounded=0;whiteSpace=wrap;html=1;fillColor=#dae8fc;strokeColor=#6c8ebf;" parent="1" vertex="1">
          <mxGeometry x="520" y="590" width="120" height="60" as="geometry" />
        </mxCell>
        <mxCell id="3AHY8TIb99wPKy08bn-X-44" value="id_biglietto" style="ellipse;whiteSpace=wrap;html=1;fillColor=#fff2cc;strokeColor=#d6b656;" parent="1" vertex="1">
          <mxGeometry x="470" y="500" width="80" height="40" as="geometry" />
        </mxCell>
        <mxCell id="3AHY8TIb99wPKy08bn-X-45" parent="1" source="3AHY8TIb99wPKy08bn-X-44" target="3AHY8TIb99wPKy08bn-X-43" edge="1">
          <mxGeometry relative="1" as="geometry" />
        </mxCell>
        <mxCell id="3AHY8TIb99wPKy08bn-X-46" value="classe" style="ellipse;whiteSpace=wrap;html=1;" parent="1" vertex="1">
          <mxGeometry x="620" y="500" width="80" height="40" as="geometry" />
        </mxCell>
        <mxCell id="3AHY8TIb99wPKy08bn-X-47" parent="1" source="3AHY8TIb99wPKy08bn-X-46" target="3AHY8TIb99wPKy08bn-X-43" edge="1">
          <mxGeometry relative="1" as="geometry" />
        </mxCell>
        <mxCell id="3AHY8TIb99wPKy08bn-X-48" value="prezzo" style="ellipse;whiteSpace=wrap;html=1;" parent="1" vertex="1">
          <mxGeometry x="460" y="710" width="80" height="40" as="geometry" />
        </mxCell>
        <mxCell id="3AHY8TIb99wPKy08bn-X-49" parent="1" source="3AHY8TIb99wPKy08bn-X-48" target="3AHY8TIb99wPKy08bn-X-43" edge="1">
          <mxGeometry relative="1" as="geometry" />
        </mxCell>
        <mxCell id="3AHY8TIb99wPKy08bn-X-50" value="stato" style="ellipse;whiteSpace=wrap;html=1;" parent="1" vertex="1">
          <mxGeometry x="650" y="550" width="80" height="40" as="geometry" />
        </mxCell>
        <mxCell id="3AHY8TIb99wPKy08bn-X-51" parent="1" source="3AHY8TIb99wPKy08bn-X-50" target="3AHY8TIb99wPKy08bn-X-43" edge="1">
          <mxGeometry relative="1" as="geometry" />
        </mxCell>
        <mxCell id="3AHY8TIb99wPKy08bn-X-52" value="data_emissione" style="ellipse;whiteSpace=wrap;html=1;" parent="1" vertex="1">
          <mxGeometry x="400" y="660" width="100" height="40" as="geometry" />
        </mxCell>
        <mxCell id="3AHY8TIb99wPKy08bn-X-53" parent="1" target="3AHY8TIb99wPKy08bn-X-43" edge="1">
          <mxGeometry relative="1" as="geometry">
            <mxPoint x="485.7257680549178" y="669.221902890718" as="sourcePoint" />
          </mxGeometry>
        </mxCell>
        <mxCell id="3AHY8TIb99wPKy08bn-X-54" value="aeroporto_partenza" style="ellipse;whiteSpace=wrap;html=1;fillColor=#ffe6cc;strokeColor=#d79b00;" parent="1" vertex="1">
          <mxGeometry x="520" y="460" width="120" height="40" as="geometry" />
        </mxCell>
        <mxCell id="3AHY8TIb99wPKy08bn-X-55" parent="1" source="3AHY8TIb99wPKy08bn-X-54" target="3AHY8TIb99wPKy08bn-X-43" edge="1">
          <mxGeometry relative="1" as="geometry" />
        </mxCell>
        <mxCell id="3AHY8TIb99wPKy08bn-X-56" value="aeroporto_arrivo" style="ellipse;whiteSpace=wrap;html=1;fillColor=#ffe6cc;strokeColor=#d79b00;" parent="1" vertex="1">
          <mxGeometry x="620" y="670" width="120" height="40" as="geometry" />
        </mxCell>
        <mxCell id="3AHY8TIb99wPKy08bn-X-57" parent="1" source="3AHY8TIb99wPKy08bn-X-56" target="3AHY8TIb99wPKy08bn-X-43" edge="1">
          <mxGeometry relative="1" as="geometry" />
        </mxCell>
        <mxCell id="3AHY8TIb99wPKy08bn-X-58" value="PRENOTAZIONE" style="rounded=0;whiteSpace=wrap;html=1;fillColor=#dae8fc;strokeColor=#6c8ebf;" parent="1" vertex="1">
          <mxGeometry x="520" y="870" width="120" height="60" as="geometry" />
        </mxCell>
        <mxCell id="3AHY8TIb99wPKy08bn-X-59" value="id_prenotazione" style="ellipse;whiteSpace=wrap;html=1;fillColor=#fff2cc;strokeColor=#d6b656;" parent="1" vertex="1">
          <mxGeometry x="440" y="810" width="100" height="40" as="geometry" />
        </mxCell>
        <mxCell id="3AHY8TIb99wPKy08bn-X-60" parent="1" source="3AHY8TIb99wPKy08bn-X-59" target="3AHY8TIb99wPKy08bn-X-58" edge="1">
          <mxGeometry relative="1" as="geometry" />
        </mxCell>
        <mxCell id="3AHY8TIb99wPKy08bn-X-61" value="data_prenotazione" style="ellipse;whiteSpace=wrap;html=1;" parent="1" vertex="1">
          <mxGeometry x="620" y="810" width="120" height="40" as="geometry" />
        </mxCell>
        <mxCell id="3AHY8TIb99wPKy08bn-X-62" parent="1" source="3AHY8TIb99wPKy08bn-X-61" target="3AHY8TIb99wPKy08bn-X-58" edge="1">
          <mxGeometry relative="1" as="geometry" />
        </mxCell>
        <mxCell id="3AHY8TIb99wPKy08bn-X-63" value="metodo_pagamento" style="ellipse;whiteSpace=wrap;html=1;" parent="1" vertex="1">
          <mxGeometry x="440" y="950" width="120" height="40" as="geometry" />
        </mxCell>
        <mxCell id="3AHY8TIb99wPKy08bn-X-64" parent="1" target="3AHY8TIb99wPKy08bn-X-58" edge="1">
          <mxGeometry relative="1" as="geometry">
            <mxPoint x="520.9092935308188" y="951.2537368344379" as="sourcePoint" />
          </mxGeometry>
        </mxCell>
        <mxCell id="3AHY8TIb99wPKy08bn-X-65" value="stato" style="ellipse;whiteSpace=wrap;html=1;" parent="1" vertex="1">
          <mxGeometry x="620" y="950" width="80" height="40" as="geometry" />
        </mxCell>
        <mxCell id="3AHY8TIb99wPKy08bn-X-66" parent="1" target="3AHY8TIb99wPKy08bn-X-58" edge="1">
          <mxGeometry relative="1" as="geometry">
            <mxPoint x="640.5172674188125" y="952.5327225134183" as="sourcePoint" />
          </mxGeometry>
        </mxCell>
        <mxCell id="3AHY8TIb99wPKy08bn-X-67" value="SCALO" style="rounded=0;whiteSpace=wrap;html=1;fillColor=#dae8fc;strokeColor=#6c8ebf;" parent="1" vertex="1">
          <mxGeometry x="380" y="340" width="120" height="60" as="geometry" />
        </mxCell>
        <mxCell id="3AHY8TIb99wPKy08bn-X-68" value="id_scalo" style="ellipse;whiteSpace=wrap;html=1;fillColor=#fff2cc;strokeColor=#d6b656;" parent="1" vertex="1">
          <mxGeometry x="310" y="280" width="80" height="40" as="geometry" />
        </mxCell>
        <mxCell id="3AHY8TIb99wPKy08bn-X-69" parent="1" source="3AHY8TIb99wPKy08bn-X-68" target="3AHY8TIb99wPKy08bn-X-67" edge="1">
          <mxGeometry relative="1" as="geometry" />
        </mxCell>
        <mxCell id="3AHY8TIb99wPKy08bn-X-70" value="ordine" style="ellipse;whiteSpace=wrap;html=1;" parent="1" vertex="1">
          <mxGeometry x="490" y="280" width="80" height="40" as="geometry" />
        </mxCell>
        <mxCell id="3AHY8TIb99wPKy08bn-X-71" parent="1" source="3AHY8TIb99wPKy08bn-X-70" target="3AHY8TIb99wPKy08bn-X-67" edge="1">
          <mxGeometry relative="1" as="geometry" />
        </mxCell>
        <mxCell id="3AHY8TIb99wPKy08bn-X-72" value="UTILIZZA" style="rhombus;whiteSpace=wrap;html=1;fillColor=#d5e8d4;strokeColor=#82b366;" parent="1" vertex="1">
          <mxGeometry x="85" y="480" width="100" height="80" as="geometry" />
        </mxCell>
        <mxCell id="3AHY8TIb99wPKy08bn-X-73" parent="1" source="3AHY8TIb99wPKy08bn-X-20" target="3AHY8TIb99wPKy08bn-X-72" edge="1">
          <mxGeometry relative="1" as="geometry">
            <mxPoint x="245" y="370" as="targetPoint" />
            <Array as="points" />
          </mxGeometry>
        </mxCell>
        <mxCell id="3AHY8TIb99wPKy08bn-X-74" parent="1" source="3AHY8TIb99wPKy08bn-X-72" target="3AHY8TIb99wPKy08bn-X-29" edge="1">
          <mxGeometry relative="1" as="geometry" />
        </mxCell>
        <mxCell id="3AHY8TIb99wPKy08bn-X-75" value="1" style="text;html=1;strokeColor=none;fillColor=none;align=center;verticalAlign=middle;whiteSpace=wrap;rounded=0;" parent="1" vertex="1">
          <mxGeometry x="110" y="450" width="30" height="20" as="geometry" />
        </mxCell>
        <mxCell id="3AHY8TIb99wPKy08bn-X-76" value="N" style="text;html=1;strokeColor=none;fillColor=none;align=center;verticalAlign=middle;whiteSpace=wrap;rounded=0;" parent="1" vertex="1">
          <mxGeometry x="155" y="550" width="30" height="20" as="geometry" />
        </mxCell>
        <mxCell id="3AHY8TIb99wPKy08bn-X-77" value="RELATIVO_A" style="rhombus;whiteSpace=wrap;html=1;fillColor=#d5e8d4;strokeColor=#82b366;" parent="1" vertex="1">
          <mxGeometry x="380" y="570" width="100" height="80" as="geometry" />
        </mxCell>
        <mxCell id="3AHY8TIb99wPKy08bn-X-78" parent="1" source="3AHY8TIb99wPKy08bn-X-29" target="3AHY8TIb99wPKy08bn-X-77" edge="1">
          <mxGeometry relative="1" as="geometry" />
        </mxCell>
        <mxCell id="3AHY8TIb99wPKy08bn-X-79" style="exitX=0.25;exitY=1;exitDx=0;exitDy=0;entryX=0;entryY=0.346;entryDx=0;entryDy=0;entryPerimeter=0;" parent="1" source="3AHY8TIb99wPKy08bn-X-81" target="3AHY8TIb99wPKy08bn-X-43" edge="1">
          <mxGeometry relative="1" as="geometry">
            <mxPoint x="455" y="615" as="sourcePoint" />
            <mxPoint x="515" y="615" as="targetPoint" />
          </mxGeometry>
        </mxCell>
        <mxCell id="3AHY8TIb99wPKy08bn-X-80" value="1" style="text;html=1;strokeColor=none;fillColor=none;align=center;verticalAlign=middle;whiteSpace=wrap;rounded=0;" parent="1" vertex="1">
          <mxGeometry x="350" y="590" width="30" height="20" as="geometry" />
        </mxCell>
        <mxCell id="3AHY8TIb99wPKy08bn-X-81" value="N" style="text;html=1;strokeColor=none;fillColor=none;align=center;verticalAlign=middle;whiteSpace=wrap;rounded=0;" parent="1" vertex="1">
          <mxGeometry x="470" y="590" width="30" height="20" as="geometry" />
        </mxCell>
        <mxCell id="3AHY8TIb99wPKy08bn-X-127" value="" style="edgeStyle=orthogonalEdgeStyle;rounded=0;orthogonalLoop=1;jettySize=auto;html=1;" parent="1" source="3AHY8TIb99wPKy08bn-X-82" target="3AHY8TIb99wPKy08bn-X-43" edge="1">
          <mxGeometry relative="1" as="geometry" />
        </mxCell>
        <mxCell id="3AHY8TIb99wPKy08bn-X-82" value="INTESTATO_A" style="rhombus;whiteSpace=wrap;html=1;fillColor=#d5e8d4;strokeColor=#82b366;" parent="1" vertex="1">
          <mxGeometry x="730" y="580" width="100" height="80" as="geometry" />
        </mxCell>
        <mxCell id="3AHY8TIb99wPKy08bn-X-83" parent="1" source="3AHY8TIb99wPKy08bn-X-43" target="3AHY8TIb99wPKy08bn-X-82" edge="1">
          <mxGeometry relative="1" as="geometry" />
        </mxCell>
        <mxCell id="3AHY8TIb99wPKy08bn-X-84" parent="1" source="3AHY8TIb99wPKy08bn-X-82" target="3AHY8TIb99wPKy08bn-X-34" edge="1">
          <mxGeometry relative="1" as="geometry" />
        </mxCell>
        <mxCell id="3AHY8TIb99wPKy08bn-X-85" value="N" style="text;html=1;strokeColor=none;fillColor=none;align=center;verticalAlign=middle;whiteSpace=wrap;rounded=0;" parent="1" vertex="1">
          <mxGeometry x="700" y="600" width="30" height="20" as="geometry" />
        </mxCell>
        <mxCell id="3AHY8TIb99wPKy08bn-X-86" value="1" style="text;html=1;strokeColor=none;fillColor=none;align=center;verticalAlign=middle;whiteSpace=wrap;rounded=0;" parent="1" vertex="1">
          <mxGeometry x="819" y="600" width="30" height="20" as="geometry" />
        </mxCell>
        <mxCell id="3AHY8TIb99wPKy08bn-X-87" value="INCLUDE" style="rhombus;whiteSpace=wrap;html=1;fillColor=#d5e8d4;strokeColor=#82b366;" parent="1" vertex="1">
          <mxGeometry x="530" y="730" width="100" height="80" as="geometry" />
        </mxCell>
        <mxCell id="3AHY8TIb99wPKy08bn-X-88" parent="1" source="3AHY8TIb99wPKy08bn-X-43" target="3AHY8TIb99wPKy08bn-X-87" edge="1">
          <mxGeometry relative="1" as="geometry" />
        </mxCell>
        <mxCell id="3AHY8TIb99wPKy08bn-X-89" parent="1" source="3AHY8TIb99wPKy08bn-X-87" target="3AHY8TIb99wPKy08bn-X-58" edge="1">
          <mxGeometry relative="1" as="geometry" />
        </mxCell>
        <mxCell id="3AHY8TIb99wPKy08bn-X-90" value="N" style="text;html=1;strokeColor=none;fillColor=none;align=center;verticalAlign=middle;whiteSpace=wrap;rounded=0;" parent="1" vertex="1">
          <mxGeometry x="580" y="690" width="30" height="20" as="geometry" />
        </mxCell>
        <mxCell id="3AHY8TIb99wPKy08bn-X-91" value="1" style="text;html=1;strokeColor=none;fillColor=none;align=center;verticalAlign=middle;whiteSpace=wrap;rounded=0;" parent="1" vertex="1">
          <mxGeometry x="580" y="820" width="30" height="20" as="geometry" />
        </mxCell>
        <mxCell id="3AHY8TIb99wPKy08bn-X-92" value="HA_SCALO" style="rhombus;whiteSpace=wrap;html=1;fillColor=#d5e8d4;strokeColor=#82b366;" parent="1" vertex="1">
          <mxGeometry x="307" y="460" width="96" height="80" as="geometry" />
        </mxCell>
        <mxCell id="3AHY8TIb99wPKy08bn-X-93" parent="1" source="3AHY8TIb99wPKy08bn-X-29" target="3AHY8TIb99wPKy08bn-X-92" edge="1">
          <mxGeometry relative="1" as="geometry" />
        </mxCell>
        <mxCell id="3AHY8TIb99wPKy08bn-X-94" style="entryX=0.5;entryY=1;entryDx=0;entryDy=0;" parent="1" source="3AHY8TIb99wPKy08bn-X-92" target="3AHY8TIb99wPKy08bn-X-67" edge="1">
          <mxGeometry relative="1" as="geometry">
            <mxPoint x="440" y="420" as="targetPoint" />
          </mxGeometry>
        </mxCell>
        <mxCell id="3AHY8TIb99wPKy08bn-X-95" value="1" style="text;html=1;strokeColor=none;fillColor=none;align=center;verticalAlign=middle;whiteSpace=wrap;rounded=0;" parent="1" vertex="1">
          <mxGeometry x="290" y="530" width="30" height="20" as="geometry" />
        </mxCell>
        <mxCell id="3AHY8TIb99wPKy08bn-X-96" value="N" style="text;html=1;strokeColor=none;fillColor=none;align=center;verticalAlign=middle;whiteSpace=wrap;rounded=0;" parent="1" vertex="1">
          <mxGeometry x="360" y="450" width="30" height="20" as="geometry" />
        </mxCell>
        <mxCell id="3AHY8TIb99wPKy08bn-X-97" value="UTILIZZA_TRATTA" style="rhombus;whiteSpace=wrap;html=1;fillColor=#d5e8d4;strokeColor=#82b366;" parent="1" vertex="1">
          <mxGeometry x="380" y="200" width="120" height="80" as="geometry" />
        </mxCell>
        <mxCell id="3AHY8TIb99wPKy08bn-X-98" parent="1" source="3AHY8TIb99wPKy08bn-X-67" target="3AHY8TIb99wPKy08bn-X-97" edge="1">
          <mxGeometry relative="1" as="geometry" />
        </mxCell>
        <mxCell id="3AHY8TIb99wPKy08bn-X-99" parent="1" source="3AHY8TIb99wPKy08bn-X-97" target="3AHY8TIb99wPKy08bn-X-10" edge="1">
          <mxGeometry relative="1" as="geometry" />
        </mxCell>
        <mxCell id="3AHY8TIb99wPKy08bn-X-100" value="N" style="text;html=1;strokeColor=none;fillColor=none;align=center;verticalAlign=middle;whiteSpace=wrap;rounded=0;" parent="1" vertex="1">
          <mxGeometry x="440" y="290" width="30" height="20" as="geometry" />
        </mxCell>
        <mxCell id="3AHY8TIb99wPKy08bn-X-101" value="1" style="text;html=1;strokeColor=none;fillColor=none;align=center;verticalAlign=middle;whiteSpace=wrap;rounded=0;" parent="1" vertex="1">
          <mxGeometry x="440" y="180" width="30" height="20" as="geometry" />
        </mxCell>
        <mxCell id="3AHY8TIb99wPKy08bn-X-102" value="EFFETTUATA_DA" style="rhombus;whiteSpace=wrap;html=1;fillColor=#d5e8d4;strokeColor=#82b366;" parent="1" vertex="1">
          <mxGeometry x="740" y="750" width="120" height="80" as="geometry" />
        </mxCell>
        <mxCell id="3AHY8TIb99wPKy08bn-X-103" parent="1" source="3AHY8TIb99wPKy08bn-X-58" target="3AHY8TIb99wPKy08bn-X-102" edge="1">
          <mxGeometry relative="1" as="geometry">
            <Array as="points">
              <mxPoint x="690" y="900" />
              <mxPoint x="800" y="900" />
            </Array>
          </mxGeometry>
        </mxCell>
        <mxCell id="3AHY8TIb99wPKy08bn-X-104" parent="1" source="3AHY8TIb99wPKy08bn-X-102" target="3AHY8TIb99wPKy08bn-X-34" edge="1">
          <mxGeometry relative="1" as="geometry">
            <Array as="points">
              <mxPoint x="799" y="720" />
              <mxPoint x="869" y="720" />
              <mxPoint x="939" y="720" />
            </Array>
          </mxGeometry>
        </mxCell>
        <mxCell id="3AHY8TIb99wPKy08bn-X-105" value="N" style="text;html=1;strokeColor=none;fillColor=none;align=center;verticalAlign=middle;whiteSpace=wrap;rounded=0;" parent="1" vertex="1">
          <mxGeometry x="770" y="840" width="30" height="20" as="geometry" />
        </mxCell>
        <mxCell id="3AHY8TIb99wPKy08bn-X-106" value="1" style="text;html=1;strokeColor=none;fillColor=none;align=center;verticalAlign=middle;whiteSpace=wrap;rounded=0;" parent="1" vertex="1">
          <mxGeometry x="770" y="730" width="30" height="20" as="geometry" />
        </mxCell>
        <mxCell id="3AHY8TIb99wPKy08bn-X-107" value="ARRIVA_IN" style="rhombus;whiteSpace=wrap;html=1;fillColor=#d5e8d4;strokeColor=#82b366;" parent="1" vertex="1">
          <mxGeometry x="240" y="160" width="100" height="80" as="geometry" />
        </mxCell>
        <mxCell id="3AHY8TIb99wPKy08bn-X-108" parent="1" source="3AHY8TIb99wPKy08bn-X-1" target="3AHY8TIb99wPKy08bn-X-107" edge="1">
          <mxGeometry relative="1" as="geometry">
            <Array as="points">
              <mxPoint x="140" y="200" />
            </Array>
          </mxGeometry>
        </mxCell>
        <mxCell id="3AHY8TIb99wPKy08bn-X-109" style="entryX=0.25;entryY=1;entryDx=0;entryDy=0;" parent="1" source="3AHY8TIb99wPKy08bn-X-107" target="3AHY8TIb99wPKy08bn-X-10" edge="1">
          <mxGeometry relative="1" as="geometry">
            <Array as="points">
              <mxPoint x="360" y="200" />
            </Array>
          </mxGeometry>
        </mxCell>
        <mxCell id="3AHY8TIb99wPKy08bn-X-110" value="1" style="text;html=1;strokeColor=none;fillColor=none;align=center;verticalAlign=middle;whiteSpace=wrap;rounded=0;" parent="1" vertex="1">
          <mxGeometry x="210" y="170" width="30" height="20" as="geometry" />
        </mxCell>
        <mxCell id="3AHY8TIb99wPKy08bn-X-111" value="N" style="text;html=1;strokeColor=none;fillColor=none;align=center;verticalAlign=middle;whiteSpace=wrap;rounded=0;" parent="1" vertex="1">
          <mxGeometry x="340" y="170" width="30" height="20" as="geometry" />
        </mxCell>
      </root>
    </mxGraphModel>
  </diagram>
</mxfile>
